<?xml version="1.0" standalone="no"?>
<!DOCTYPE svg PUBLIC "-//W3C//DTD SVG 20010904//EN"
 "http://www.w3.org/TR/2001/REC-SVG-20010904/DTD/svg10.dtd">
<svg version="1.0" xmlns="http://www.w3.org/2000/svg"
 width="260.000000pt" height="280.000000pt" viewBox="0 0 260.000000 280.000000"
 preserveAspectRatio="xMidYMid meet">

<g transform="translate(0.000000,280.000000) scale(0.100000,-0.100000)"
fill="#000000" stroke="none">
<path d="M1164 2740 c-671 -70 -1170 -639 -1105 -1261 31 -294 179 -573 400
-754 l61 -50 0 -217 c0 -120 2 -218 4 -218 3 0 97 51 210 113 l205 113 88 -19
c66 -15 131 -20 258 -21 189 -1 267 9 415 56 341 109 619 353 753 663 76 175
106 368 87 547 -41 370 -252 685 -595 886 -209 123 -525 189 -781 162z m551
-1048 c347 195 378 212 369 196 -5 -8 -155 -171 -334 -362 l-325 -347 -55 58
c-30 32 -102 109 -160 171 l-105 112 -299 -165 c-165 -91 -301 -164 -302 -162
-2 1 87 99 197 217 110 118 260 279 332 358 l132 142 165 -171 165 -170 220
123z"/>
</g>
</svg>
